<mxfile host="app.diagrams.net" modified="2024-06-06T23:03:30.492Z" agent="Mozilla/5.0 (X11; Linux x86_64; rv:125.0) Gecko/20100101 Firefox/125.0" version="24.5.1" etag="mQoXtfcy-BY0Ju4D5T-k" type="github">
  <diagram name="Page-1" id="2nw3DCFPYrIwQXpczRh_">
    <mxGraphModel>
      <root>
        <mxCell id="0" />
        <mxCell id="1" parent="0" />
      </root>
    </mxGraphModel>
  </diagram>
</mxfile>
